PathFileType	4	(X/Y/Z)	D:\MotionData\Pi-Spi Study\20230118_AMCsubject1\Trimmed_left_abd_18001_rotated.trc
DataRate	CameraRate	NumFrames	NumMarkers	Units	OrigDataRate	OrigDataStartFrame	OrigNumFrames
200.00	200.00	       8	35	mm	200.00	151	       200
Frame#	Time	C7			Sternum			r_AMC1			r_AMC2			r_AMC3			l_AMC1			l_AMC2			l_AMC3			PX			T8			r_humerous			r_elbow_medial			r_elbow_lateral			r_forearm			r_wrist_radius			r_wrist_ulna			r_MCP_1			r_MCP_3			l_humerous			l_elbow_medial			l_elbow_lateral			l_forearm			l_wrist_radius			l_wrist_ulna			l_MCP_1			l_MCP_3			r_ASIS			r_PSIS			l_ASIS			l_PSIS			r_IC			l_IC			TS			AI			AA			
		X1	Y1	Z1	X2	Y2	Z2	X3	Y3	Z3	X4	Y4	Z4	X5	Y5	Z5	X6	Y6	Z6	X7	Y7	Z7	X8	Y8	Z8	X9	Y9	Z9	X10	Y10	Z10	X11	Y11	Z11	X12	Y12	Z12	X13	Y13	Z13	X14	Y14	Z14	X15	Y15	Z15	X16	Y16	Z16	X17	Y17	Z17	X18	Y18	Z18	X19	Y19	Z19	X20	Y20	Z20	X21	Y21	Z21	X22	Y22	Z22	X23	Y23	Z23	X24	Y24	Z24	X25	Y25	Z25	X26	Y26	Z26	X27	Y27	Z27	X28	Y28	Z28	X29	Y29	Z29	X30	Y30	Z30	X31	Y31	Z31	X32	Y32	Z32	X33	Y33	Z33	X34	Y34	Z34	X35	Y35	Z35	

151	0.75	200.9067	1368.8823	-206.9954	341.0864	1326.2894	-196.7479	196.3778	1310.4487	-58.2791	228.5174	1313.3962	-19.4963	247.868	1350.3164	-38.3035	186.436	1349.3557	-326.777	218.2979	1384.8615	-343.9941	216.4676	1401.8052	-294.5538	415.9425	1137.7402	-206.4922	180.6414	1188.6885	-222.9034	311.3414	1134.3459	-4.0949	250.9068	990.8892	-37.2385	261.7054	1000.4402	27.8557	318.18	846.7784	51.99	370.0527	785.8989	35.7222	321.9922	777.5978	51.5582	393.8337	703.3209	48.3085	344.7029	698.3676	60.65	302.1711	1484.1978	-349.8427	366.5866	1568.7281	-453.9457	322.0058	1594.9192	-448.9897	349.1862	1751.5764	-458.7563	388.2619	1822.2352	-443.7553	379.4955	1817.6647	-487.9471	380.0846	1892.7611	-446.012	377.463	1888.8662	-489.2244	375.6823	905.6504	-80.0535	190.1832	929.7786	-167.7465	382.5663	893.3343	-336.9853	193.7302	924.1207	-269.5609	294.817	969.2218	-54.0614	298.8627	941.8514	-377.4865	128.1365	1290.082	-288.7498	153.5734	1209.5895	-344.4787	161.6189	1377.6504	-391.4929
152	0.755	200.9247	1368.8862	-206.9809	341.0987	1326.2733	-196.7325	196.3964	1310.4526	-58.2752	228.5306	1313.4147	-19.4811	247.8794	1350.3414	-38.27	186.4358	1349.3441	-326.7394	218.3185	1384.8739	-343.9535	216.4808	1401.7876	-294.5387	415.9641	1137.7205	-206.5024	180.6607	1188.6719	-222.8998	311.3481	1134.3297	-4.0643	250.9094	990.8654	-37.2323	261.6783	1000.4191	27.8663	318.219	846.7281	51.9922	370.0142	785.9046	35.7751	321.6271	777.4829	51.4447	393.7766	703.3242	48.3361	344.6978	698.274	60.6803	302.177	1484.1688	-349.8731	366.567	1568.6987	-453.9704	321.9999	1594.8946	-449.0092	349.2194	1751.5617	-458.7985	388.2679	1822.2234	-443.8151	379.5304	1817.5725	-488.0291	380.1	1892.7353	-446.0366	377.4727	1888.9086	-489.237	375.6809	905.6221	-80.0967	190.1477	929.7482	-167.7577	382.5839	893.3251	-336.9829	193.7024	924.1154	-269.5358	294.8673	969.1825	-54.0651	298.7918	941.8878	-377.4484	128.1292	1290.0696	-288.7498	153.5559	1209.5764	-344.4494	161.5973	1377.5873	-391.5359
153	0.76	200.9468	1368.9025	-206.9364	341.1089	1326.2301	-196.7389	196.4032	1310.4552	-58.2401	228.6061	1313.3398	-19.4763	247.9099	1350.311	-38.2906	186.4477	1349.3113	-326.7077	218.3036	1384.8586	-343.9462	216.4752	1401.7991	-294.5058	415.956	1137.7029	-206.4881	180.6555	1188.6768	-222.8644	311.3412	1134.3279	-4.0725	250.9135	990.8698	-37.2221	261.6935	1000.414	27.8946	318.1638	846.7098	52.0231	369.9674	785.8782	35.843	321.6612	777.4291	51.3925	393.7132	703.3713	48.4048	344.6167	698.3265	60.7187	302.1544	1484.2076	-349.8535	366.5784	1568.7407	-453.997	322.0127	1594.8887	-449.049	349.2004	1751.5424	-458.8254	388.2791	1822.1986	-443.8462	379.55	1817.558	-488.0693	380.114	1892.696	-446.0797	377.4875	1888.8119	-489.2924	375.6411	905.6099	-80.0226	190.1592	929.7427	-167.74	382.5378	893.3233	-336.9721	193.6943	924.1132	-269.5263	294.9119	969.0739	-54.0112	298.8352	941.908	-377.5058	128.1232	1290.0348	-288.7602	153.5626	1209.5431	-344.3751	161.6366	1377.5532	-391.5791
154	0.765	200.9536	1368.8778	-206.9548	341.1591	1326.2233	-196.7396	196.4391	1310.459	-58.2426	228.574	1313.3905	-19.4352	247.9398	1350.3268	-38.27	186.4374	1349.3208	-326.7149	218.3275	1384.8798	-343.9214	216.5094	1401.7859	-294.487	415.9665	1137.6647	-206.468	180.6427	1188.6857	-222.8367	311.3622	1134.3545	-4.0615	250.8957	990.8533	-37.1902	261.6568	1000.4516	27.9339	318.1176	846.7311	52.0929	369.9034	785.9321	35.8612	321.6161	777.4268	51.4657	393.7535	703.2208	48.3657	344.6302	698.2625	60.718	302.244	1484.1193	-349.8808	366.5987	1568.6257	-454.0265	322.0192	1594.8724	-449.0786	349.2301	1751.4934	-458.8777	388.3109	1822.1648	-443.9044	379.5084	1817.5896	-488.0677	380.1351	1892.6823	-446.1135	377.4729	1888.8608	-489.3076	375.7242	905.5718	-80.0414	190.1509	929.7555	-167.7331	382.5652	893.3187	-336.9746	193.6941	924.1441	-269.5052	294.9207	969.1376	-54.007	298.8608	941.8227	-377.4581	128.1357	1290.0272	-288.7479	153.5583	1209.5015	-344.3725	161.6153	1377.4868	-391.5908
155	0.77	200.9522	1368.9026	-206.9007	341.1597	1326.2163	-196.7619	196.4486	1310.4761	-58.2366	228.6289	1313.3544	-19.4077	247.9701	1350.3251	-38.2722	186.4429	1349.3121	-326.7121	218.3544	1384.8563	-343.9295	216.5281	1401.7786	-294.4792	415.9744	1137.6679	-206.4772	180.6468	1188.6967	-222.8266	311.3702	1134.3159	-4.0431	250.8941	990.8621	-37.1777	261.6162	1000.402	27.9296	318.1147	846.7106	52.108	369.8826	785.9198	35.9026	321.873	777.5439	51.6352	393.7268	703.2263	48.4067	344.5618	698.2626	60.7454	302.26	1484.0691	-349.8846	366.6147	1568.5774	-454.0858	322.007	1594.8445	-449.1202	349.2295	1751.489	-458.9127	388.291	1822.1608	-443.9497	379.5221	1817.5773	-488.1094	380.1267	1892.6388	-446.1765	377.4931	1888.8408	-489.3693	375.6974	905.6052	-80.0287	190.1542	929.7437	-167.7063	382.5273	893.2759	-336.9575	193.6378	924.1206	-269.4359	294.9875	969.1061	-53.9824	298.8567	941.8255	-377.401	128.1383	1290.0024	-288.7425	153.5814	1209.4899	-344.3588	161.6217	1377.4551	-391.611
156	0.775	200.9603	1368.9065	-206.8955	341.1868	1326.2137	-196.7332	196.4621	1310.4734	-58.1951	228.6173	1313.377	-19.3924	247.9834	1350.3285	-38.2244	186.4944	1349.3075	-326.7255	218.3373	1384.8539	-343.91	216.5328	1401.7502	-294.4572	415.9645	1137.6659	-206.4811	180.6512	1188.6903	-222.7987	311.358	1134.3551	-4.0247	250.876	990.8517	-37.1409	261.6358	1000.4171	28.0013	318.1308	846.6949	52.1176	369.8332	785.9148	35.9387	321.5408	777.4311	51.5207	393.6517	703.2511	48.478	344.6128	698.2258	60.7886	302.2876	1484.0936	-349.8873	366.5822	1568.5671	-454.0939	322.0028	1594.8264	-449.1422	349.2245	1751.4677	-458.9621	388.2933	1822.1431	-444.0014	379.5006	1817.5424	-488.1916	380.1381	1892.6014	-446.2258	377.5128	1888.8003	-489.4442	375.7713	905.5782	-80.0366	190.1463	929.7523	-167.6734	382.5066	893.2965	-336.9428	193.6542	924.1191	-269.47	295.017	969.107	-53.959	298.789	941.8135	-377.4067	128.1423	1290.0028	-288.79	153.568	1209.4434	-344.3478	161.6291	1377.4202	-391.6304
157	0.78	200.9679	1368.9056	-206.886	341.1709	1326.1947	-196.7402	196.4701	1310.4897	-58.1901	228.6851	1313.3524	-19.4115	248.0225	1350.2937	-38.2377	186.4897	1349.2949	-326.7054	218.334	1384.8621	-343.8637	216.5476	1401.7474	-294.4348	415.9639	1137.6399	-206.4293	180.6472	1188.6648	-222.7735	311.3755	1134.3424	-4.0285	250.8565	990.8601	-37.1222	261.641	1000.4474	28.0046	318.0898	846.6952	52.1563	369.9105	785.8221	35.8751	321.5011	777.4656	51.5546	393.6171	703.2402	48.4986	344.5227	698.2651	60.8265	302.2492	1484.0774	-349.9213	366.5643	1568.5505	-454.1419	322.0068	1594.7976	-449.2011	349.2262	1751.4402	-458.9877	388.2704	1822.1169	-444.0658	379.5108	1817.5113	-488.2418	380.109	1892.5867	-446.2754	377.4992	1888.7833	-489.4973	375.734	905.5802	-79.9896	190.1565	929.7443	-167.6641	382.5344	893.2869	-336.9415	193.645	924.1512	-269.4384	294.9751	969.0655	-53.9542	298.778	941.811	-377.4035	128.1517	1289.9722	-288.748	153.6066	1209.438	-344.3614	161.649	1377.377	-391.6495
158	0.785	200.9789	1368.8986	-206.8609	341.2066	1326.215	-196.7191	196.4923	1310.4912	-58.1955	228.6888	1313.3427	-19.3981	248.0193	1350.2874	-38.198	186.4954	1349.2891	-326.6971	218.3807	1384.853	-343.8551	216.5653	1401.7404	-294.4377	415.9932	1137.631	-206.4532	180.6354	1188.6811	-222.7211	311.4077	1134.2932	-4.0344	250.8509	990.8737	-37.0972	261.6376	1000.4312	27.9927	318.0351	846.7306	52.2182	369.8391	785.8298	35.9606	321.4549	777.5093	51.573	393.6044	703.1766	48.5276	344.468	698.271	60.8662	302.27	1484.1018	-349.9166	366.5682	1568.5503	-454.1977	321.9804	1594.7764	-449.2461	349.2095	1751.4294	-459.0377	388.2623	1822.0459	-444.1101	379.4871	1817.5015	-488.2756	380.101	1892.5769	-446.3243	377.467	1888.7654	-489.5496	375.7183	905.5407	-80.0002	190.1711	929.8078	-167.604	382.4796	893.2691	-336.9309	193.624	924.1482	-269.3646	294.99	969.1027	-53.9541	298.7092	941.8541	-377.3842	128.1413	1289.9692	-288.7383	153.5764	1209.4062	-344.3066	161.66	1377.3416	-391.6533
